<?xml version="1.0" standalone="no"?>
<!DOCTYPE svg PUBLIC "-//W3C//DTD SVG 20010904//EN"
 "http://www.w3.org/TR/2001/REC-SVG-20010904/DTD/svg10.dtd">
<svg version="1.0" xmlns="http://www.w3.org/2000/svg"
 width="169.000000pt" height="169.000000pt" viewBox="0 0 169.000000 169.000000"
 preserveAspectRatio="xMidYMid meet">
<metadata>
Created by potrace 1.14, written by Peter Selinger 2001-2017
</metadata>
<g transform="translate(0.000000,169.000000) scale(0.100000,-0.100000)"
fill="#000000" stroke="none">
<path d="M707 1258 l383 -383 102 103 103 102 -280 280 -280 280 -205 0 -205
0 382 -382z"/>
<path d="M910 1605 l-34 -35 102 -103 102 -102 137 138 138 137 -206 0 -205 0
-34 -35z"/>
<path d="M40 1149 l0 -205 35 -34 35 -34 103 102 102 102 -138 137 -137 138 0
-206z"/>
<path d="M1255 970 l-380 -380 103 -102 102 -103 280 280 280 280 -2 203 -3
202 -380 -380z"/>
<path d="M317 1012 l-277 -277 0 -205 0 -205 382 382 383 383 -100 100 c-55
55 -102 100 -105 100 -3 0 -130 -125 -283 -278z"/>
<path d="M485 700 l-100 -100 280 -280 280 -280 205 0 205 0 -380 380 c-209
209 -382 380 -385 380 -3 0 -50 -45 -105 -100z"/>
<path d="M1465 700 l-100 -100 138 -138 137 -137 0 206 0 205 -33 32 c-18 18
-35 32 -38 32 -2 0 -49 -45 -104 -100z"/>
<path d="M460 175 l-135 -135 206 0 205 0 34 35 34 35 -99 100 c-55 55 -102
100 -105 100 -3 0 -66 -61 -140 -135z"/>
</g>
</svg>
